# xmcd CD database file
#
# Track frame offsets:
#	150
#	12702
#	26567
#	42275
#	55232
#	68835
#	80665
#	96075
#	104117
#	116945
#	126992
#	140827
#
# Disc length: 2030 seconds
#
# Revision: 1
# Processed by: cddbd v1.5.2PL0 Copyright (c) Steve Scherf et al.
# Submitted via: CDex 1.51
#
DISCID=b807ec0c
DTITLE=Nini Rosso - I grandi successi originali [CD2)
DYEAR=2001
DGENRE=Pop
TTITLE0=Stardust
TTITLE1=Concerto per un addio
TTITLE2=Un uomo e una donna
TTITLE3=Anonimo veneziano
TTITLE4=Borsalino
TTITLE5=C'era una volta un west
TTITLE6=Mamy blue
TTITLE7=Giochi proibiti
TTITLE8=Pepite fleur
TTITLE9=A man a story
TTITLE10=Blue spanish eyes
TTITLE11=Musica proibita
EXTD=YEAR: 2001
EXTT0=
EXTT1=
EXTT2=
EXTT3=
EXTT4=
EXTT5=
EXTT6=
EXTT7=
EXTT8=
EXTT9=
EXTT10=
EXTT11=
PLAYORDER=
